#!OML:ASF H:\Terrain\Patient Classification 1\Animal2\Wednesday\Animal2.ASF
:FULLY-SPECIFIED
:DEGREES
976
root 10.9206 16.1708 -19.1745 -2.35856 -6.35002 -1.25242
lowerback 4.63524 -4.18334 -1.10534
upperback -1.88966 -5.6066 1.23723
thorax -4.31485 -2.73602 2.34951
lowerneck -0.151908 -3.95635 12.7759
upperneck -11.3768 -7.15824 -19.8263
head -4.45113 -3.31009 -8.15472
rclavicle -3.81667e-014 1.35174e-014
rhumerus -26.1326 21.1664 -99.8619
rradius 137.131
rwrist 6.23887
rhand -24.799 9.99672
rfingers 7.12502
rthumb 1.70573 -19.9762
lclavicle -3.81667e-014 1.35174e-014
lhumerus -39.7241 -11.2564 94.1709
lradius 142.719
lwrist 49.1337
lhand -42.2273 34.2944
lfingers 7.12502
lthumb -15.1141 63.7226
rfemur -19.3097 -1.36399 12.4122
rtibia 56.0577
rfoot -35.0071 -6.01881
rtoes -20.5816
lfemur -16.3446 6.84881 -5.36076
ltibia 53.0968
lfoot -31.9148 -3.585
ltoes -25.2173
977
root 10.9177 16.1707 -19.1672 -2.34363 -6.2734 -1.20717
lowerback 4.45732 -4.20578 -1.19724
upperback -1.75292 -5.64146 1.21979
thorax -4.06363 -2.75638 2.36171
lowerneck 0.14244 -4.02626 12.5773
upperneck -11.9083 -7.27381 -19.4832
head -4.66327 -3.34307 -7.99696
rclavicle -2.58917e-014 9.34288e-015
rhumerus -25.8644 21.1511 -99.775
rradius 137.25
rwrist 6.11673
rhand -25.2203 10.1094
rfingers 7.12502
rthumb 1.29883 -19.8663
lclavicle -2.58917e-014 9.34288e-015
lhumerus -39.6555 -11.7775 94.4955
lradius 142.683
lwrist 49.5719
lhand -40.7957 34.4951
lfingers 7.12502
lthumb -13.7347 64.0218
rfemur -19.2892 -1.45808 12.3593
rtibia 56.0735
rfoot -35.0438 -6.12227
rtoes -20.9715
lfemur -16.3755 6.76993 -5.4205
ltibia 53.1343
lfoot -31.8998 -3.73936
ltoes -24.6341
978
root 10.9125 16.1691 -19.1591 -2.32908 -6.23507 -1.25377
lowerback 4.3998 -4.21619 -1.16872
upperback -1.72446 -5.65318 1.21767
thorax -4.00403 -2.7642 2.33814
lowerneck 0.386315 -4.08994 12.3928
upperneck -12.1822 -7.35807 -19.2415
head -4.78859 -3.36646 -7.87478
rclavicle 1.95554e-014 -2.18663e-015
rhumerus -25.877 21.0751 -99.707
rradius 137.354
rwrist 6.07967
rhand -26.2476 10.3922
rfingers 7.12502
rthumb 0.306612 -19.5873
lclavicle 1.95554e-014 -2.18663e-015
lhumerus -39.7739 -12.149 94.7533
lradius 142.659
lwrist 49.4418
lhand -39.1487 34.3763
lfingers 7.12502
lthumb -12.147 64.0036
rfemur -19.273 -1.46714 12.4261
rtibia 56.0877
rfoot -35.0797 -6.17098
rtoes -20.2808
lfemur -16.3868 6.78136 -5.34017
ltibia 53.1687
lfoot -31.8157 -3.76883
ltoes -24.484
979
root 10.9044 16.1659 -19.1547 -2.34234 -6.21985 -1.47703
lowerback 4.50232 -4.22251 -1.02037
upperback -1.76169 -5.65045 1.29007
thorax -4.1076 -2.76379 2.34164
lowerneck 0.661508 -4.10717 12.389
upperneck -12.4083 -7.38839 -19.2198
head -4.90948 -3.36237 -7.86379
rclavicle -6.09275e-014 -7.95139e-015
rhumerus -26.0508 20.9555 -99.6213
rradius 137.46
rwrist 6.19698
rhand -27.0467 10.4095
rfingers 7.12502
rthumb -0.465238 -19.5698
lclavicle -6.09275e-014 -7.95139e-015
lhumerus -39.9899 -12.3802 94.9732
lradius 142.609
lwrist 49.3874
lhand -37.4627 33.5676
lfingers 7.12502
lthumb -10.521 63.2843
rfemur -19.2053 -1.38653 12.724
rtibia 56.1049
rfoot -35.0135 -6.23718
rtoes -20.0698
lfemur -16.3809 6.85927 -5.01774
ltibia 53.2219
lfoot -31.8284 -3.57447
ltoes -25.5389
980
root 10.899 16.1661 -19.1515 -2.28852 -6.20485 -1.5726
lowerback 4.5575 -4.24339 -0.973033
upperback -1.84617 -5.67326 1.35422
thorax -4.22369 -2.77319 2.39264
lowerneck 0.982791 -4.07301 12.3787
upperneck -12.6796 -7.3595 -19.2664
head -5.044 -3.32294 -7.87994
rclavicle 6.01572e-014 -7.7526e-015
rhumerus -26.2008 20.8933 -99.5445
rradius 137.615
rwrist 6.27181
rhand -27.3162 10.3693
rfingers 7.12502
rthumb -0.725495 -19.6092
lclavicle 6.01572e-014 -7.7526e-015
lhumerus -40.1359 -12.285 94.9906
lradius 142.522
lwrist 50.3205
lhand -36.3885 32.1443
lfingers 7.12502
lthumb -9.48466 61.9108
rfemur -19.2317 -1.40122 12.8515
rtibia 56.1258
rfoot -34.9546 -6.33631
rtoes -20.8784
lfemur -16.4632 6.8951 -4.89095
ltibia 53.2674
lfoot -31.9303 -3.44402
ltoes -26.3562
981
root 10.8948 16.1671 -19.1497 -2.1935 -6.15148 -1.56355
lowerback 4.5119 -4.27959 -1.00476
upperback -1.89691 -5.72222 1.38734
thorax -4.24213 -2.79574 2.44648
lowerneck 1.0321 -4.03838 12.4154
upperneck -12.7079 -7.33137 -19.423
head -5.06261 -3.30126 -7.94303
rclavicle 1.34677e-014 1.49089e-014
rhumerus -26.1618 20.896 -99.4651
rradius 137.678
rwrist 6.48426
rhand -28.1067 10.4967
rfingers 7.12502
rthumb -1.48893 -19.4779
lclavicle 1.34677e-014 1.49089e-014
lhumerus -40.1302 -12.0812 94.8903
lradius 142.477
lwrist 51.3739
lhand -35.6331 31.457
lfingers 7.12502
lthumb -8.75572 61.2554
rfemur -19.3387 -1.45293 12.8505
rtibia 56.1574
rfoot -34.881 -6.54494
rtoes -21.6881
lfemur -16.6048 6.88661 -4.90965
ltibia 53.3026
lfoot -31.9535 -3.40305
ltoes -26.7676
982
root 10.8905 16.1721 -19.1475 -2.15882 -6.07849 -1.58088
lowerback 4.56787 -4.30066 -1.00994
upperback -1.96532 -5.74962 1.42266
thorax -4.33961 -2.80666 2.49645
lowerneck 1.18659 -4.10557 12.4609
upperneck -12.721 -7.43383 -19.5782
head -5.11924 -3.33844 -7.99586
rclavicle -3.77194e-014 -8.15017e-015
rhumerus -26.2157 20.8618 -99.4104
rradius 137.558
rwrist 7.17355
rhand -29.489 10.5941
rfingers 7.12502
rthumb -2.82396 -19.3669
lclavicle -3.77194e-014 -8.15017e-015
lhumerus -40.3189 -12.1783 95.0623
lradius 142.436
lwrist 50.9323
lhand -33.989 31.3614
lfingers 7.12502
lthumb -7.16892 61.2199
rfemur -19.3663 -1.51949 12.871
rtibia 56.1852
rfoot -34.8976 -6.37808
rtoes -21.3266
lfemur -16.674 6.86631 -4.88546
ltibia 53.326
lfoot -31.8588 -3.46419
ltoes -26.7488
983
root 10.8868 16.17 -19.1424 -2.18097 -6.02499 -1.49485
lowerback 4.65764 -4.29221 -1.13834
upperback -2.02806 -5.74653 1.44153
thorax -4.44141 -2.79895 2.59769
lowerneck 1.36005 -4.18364 12.3517
upperneck -12.7406 -7.53404 -19.5541
head -5.16946 -3.37359 -7.95741
rclavicle -2.70968e-014 5.96354e-016
rhumerus -26.3149 20.6898 -99.2976
rradius 137.519
rwrist 7.91179
rhand -30.5543 10.4726
rfingers 7.12502
rthumb -3.85278 -19.4723
lclavicle -2.70968e-014 5.96354e-016
lhumerus -40.4875 -12.2791 95.1843
lradius 142.283
lwrist 50.1818
lhand -32.4024 30.0264
lfingers 7.12502
lthumb -5.63725 59.9315
rfemur -19.3616 -1.62028 12.7616
rtibia 56.2354
rfoot -35.0335 -6.22176
rtoes -20.9136
lfemur -16.6518 6.8257 -4.95866
ltibia 53.3378
lfoot -31.7778 -3.86099
ltoes -25.236
984
root 10.8816 16.1604 -19.1375 -2.19212 -5.9931 -1.57821
lowerback 4.66175 -4.28688 -1.11759
upperback -2.00803 -5.73549 1.50485
thorax -4.41896 -2.79377 2.64971
lowerneck 1.28083 -4.17196 12.173
upperneck -12.6264 -7.49992 -19.4318
head -5.10444 -3.36081 -7.88339
rclavicle 1.32068e-014 -5.56597e-015
rhumerus -26.1567 20.5 -99.1177
rradius 137.567
rwrist 8.11537
rhand -31.1625 10.2376
rfingers 7.12502
rthumb -4.44006 -19.6958
lclavicle 1.32068e-014 -5.56597e-015
lhumerus -40.4558 -12.218 95.1097
lradius 142.158
lwrist 49.9563
lhand -31.7887 27.7045
lfingers 7.12502
lthumb -5.04469 57.6244
rfemur -19.3659 -1.62715 12.8802
rtibia 56.291
rfoot -34.9673 -6.30504
rtoes -21.0991
lfemur -16.62 6.79492 -4.80806
ltibia 53.3652
lfoot -31.7894 -4.1399
ltoes -24.1018
